<svg width="314" height="78" viewBox="0 0 314 78" fill="none" xmlns="http://www.w3.org/2000/svg">
<g clip-path="url(#clip0_2985_1636)">
<path d="M87.912 35.816V34.12L92.872 35.816H94.824L96.808 33.64L100.328 36.52C100.168 36.744 99.848 36.904 99.336 37V41.736C99.336 42.088 99.4 42.184 99.752 42.184H100.392C100.616 42.184 100.808 42.184 100.936 42.184C101.16 42.152 101.32 42.12 101.48 41.832C101.768 41.384 102.28 40.136 102.856 38.472H103.208L103.272 41.992C104.168 42.44 104.328 42.888 104.328 43.656C104.328 45.192 102.888 45.992 99.816 45.992H98.248C95.464 45.992 95.176 45.16 95.176 42.696V36.712H92.232V38.568C92.232 41.256 91.464 45.672 84.936 47.912L84.744 47.656C87.624 44.904 87.912 41.352 87.912 38.568V35.816ZM96.424 49.32H88.904C89.928 51.816 91.528 53.704 93.48 55.176C94.76 53.384 95.752 51.432 96.424 49.32ZM85.16 48.424H96.264L98.696 46.12L102.6 49.608C102.376 49.992 102.056 50.088 101.256 50.184C100.168 52.808 98.664 55.112 96.68 57.064C99.176 58.216 101.96 58.952 104.808 59.496L104.776 59.88C102.792 60.328 101.448 61.8 100.84 64.04C97.992 62.888 95.56 61.512 93.576 59.592C90.504 61.64 86.6 63.144 81.704 63.944L81.544 63.592C85.736 62.12 89.096 59.976 91.656 57.32C90.184 55.24 89.064 52.648 88.328 49.32H85.448L85.16 48.424ZM73.48 48.552C74.28 48.392 75.688 48.072 77.384 47.656V42.216H74.088L73.832 41.32H77.384V33.608L82.888 34.12C82.824 34.6 82.504 34.92 81.704 35.048V41.064L83.304 38.408C83.304 38.408 85.352 40.424 86.44 41.704C86.344 42.056 86.024 42.216 85.576 42.216H81.704V46.6L85.704 45.544L85.768 45.832C84.776 46.664 83.432 47.752 81.704 49V59.144C81.704 62.088 81.096 63.656 76.616 64.04C76.552 62.664 76.424 61.64 76.008 60.968C75.624 60.328 75.08 59.88 73.704 59.592V59.176C73.704 59.176 76.2 59.336 76.808 59.336C77.256 59.336 77.384 59.208 77.384 58.856V51.976L76.072 52.84C75.944 53.288 75.592 53.672 75.144 53.8L73.48 48.552ZM131.336 55.88C143.432 56.04 141.576 64.648 136.936 62.728C135.656 60.392 133.096 57.736 131.112 56.104L131.336 55.88ZM118.6 55.016L123.624 57.928C123.464 58.216 123.144 58.408 122.408 58.312C120.104 60.392 116.36 62.184 112.296 62.984L112.072 62.632C114.952 60.712 117.48 57.48 118.6 55.016ZM116.168 49.896H132.264L134.376 47.24L134.76 47.528V46.888H120.072V47.976C120.072 48.392 118.024 49.352 116.168 49.352H115.528V38.056L120.424 39.88H122.12V36.648H113.096L112.84 35.752H135.656L137.928 33.128C137.928 33.128 140.52 34.888 142.152 36.136C142.056 36.488 141.704 36.648 141.224 36.648H132.488V39.88H134.44L136.456 37.672L140.648 40.808C140.456 41.064 140.072 41.384 139.4 41.512V47.112C139.368 47.368 137.192 48.2 135.688 48.232C136.488 48.84 137.48 49.64 138.248 50.28C138.184 50.632 137.832 50.792 137.352 50.792H116.424L116.168 49.896ZM126.056 36.648V39.88H128.488V36.648H126.056ZM122.12 45.992V40.776H120.072V45.992H122.12ZM126.056 45.992H128.488V40.776H126.056V45.992ZM132.488 45.992H134.76V40.776H132.488V45.992ZM112.84 53.96H135.496L137.832 51.08C137.832 51.08 140.456 53 142.088 54.344C141.992 54.696 141.608 54.856 141.16 54.856H129.736V59.304C129.736 62.152 129.032 63.752 124.136 64.072C124.04 62.76 123.944 61.832 123.464 61.224C123.016 60.68 122.472 60.2 120.808 59.912V59.56C120.808 59.56 123.752 59.72 124.424 59.72C124.872 59.72 125 59.528 125 59.24V54.856H113.096L112.84 53.96ZM151.976 34.376C159.592 36.072 155.848 41.608 152.936 39.016C152.936 37.448 152.296 35.688 151.688 34.536L151.976 34.376ZM162.696 34.376L167.144 35.976C166.984 36.36 166.6 36.616 165.896 36.584C164.648 37.736 163.176 38.92 161.896 39.656L161.448 39.432C161.832 38.216 162.312 36.2 162.696 34.376ZM156.936 33.64L162.152 34.088C162.088 34.472 161.864 34.76 161.096 34.888V40.264H163.24L165 37.8C165 37.8 166.984 39.496 168.136 40.648C168.072 41 167.752 41.16 167.304 41.16H161.096V41.736C169.608 42.472 166.6 49.032 163.016 46.728C162.696 45.352 161.896 43.912 161.096 42.728V46.728C161.096 47.048 159.24 47.752 157.672 47.752H156.936V44.968C155.208 46.472 153.064 47.688 150.664 48.648L150.376 48.232C152.68 46.408 154.44 43.784 155.464 41.16H151.016L150.76 40.264H156.936V33.64ZM169.064 33.704L175.144 35.08C175.016 35.496 174.632 35.784 173.896 35.816C173.448 37.672 172.904 39.368 172.296 40.968H175.176L177.416 37.992C177.416 37.992 179.944 40.008 181.416 41.352C181.32 41.704 180.968 41.864 180.52 41.864H179.144C178.664 46.888 177.608 51.464 175.144 55.24C176.904 57.16 179.08 58.728 181.672 59.912L181.576 60.232C179.4 60.712 178.184 61.96 177.608 64.04C175.528 62.504 173.928 60.552 172.712 58.216C170.28 60.68 166.952 62.632 162.44 64.008L162.248 63.688C166.568 61.224 169.384 58.152 171.208 54.664C170.376 52.2 169.8 49.448 169.416 46.44C168.648 47.56 167.784 48.584 166.824 49.512L168.936 51.24C168.84 51.592 168.52 51.752 168.04 51.752H165.992C165.48 53.544 164.712 55.144 163.688 56.584C167.624 58.568 165.416 62.6 162.376 61.352C162.024 60.904 161.448 60.296 160.744 59.656C158.216 61.672 154.856 63.144 150.664 64.072L150.504 63.72C154.088 62.184 156.712 60.168 158.472 57.768C157.896 57.352 157.256 56.904 156.616 56.488L155.752 58.088C154.76 58.472 152.968 58.44 151.368 57.704C152.232 56.264 153.352 53.896 154.28 51.752H150.92L150.664 50.856H154.664C155.176 49.672 155.56 48.584 155.784 47.848L161.224 48.712C161.128 49.192 160.744 49.512 159.848 49.544L159.272 50.856H163.016L165.128 48.2L166.344 49.16C167.784 45 168.84 39.112 169.064 33.704ZM158.888 51.752L157.096 55.528C158.088 55.496 159.016 55.496 159.816 55.592C160.392 54.376 160.808 53.096 161.064 51.752H158.888ZM172.52 51.656C173.576 48.616 174.024 45.32 174.152 41.864H171.912C171.368 43.144 170.76 44.328 170.088 45.416C170.664 47.752 171.464 49.8 172.52 51.656ZM213.736 41.352C213.16 40.456 212.424 39.24 210.856 37.832L211.112 37.448C212.968 37.832 214.632 38.344 215.72 39.336C216.36 39.912 216.552 40.456 216.552 41.064C216.552 41.8 215.976 42.408 215.176 42.408C214.632 42.408 214.184 42.088 213.736 41.352ZM216.776 38.696C216.264 37.992 215.656 37 213.864 35.56L214.088 35.208C216.008 35.464 217.576 35.944 218.536 36.616C219.336 37.192 219.624 37.832 219.624 38.6C219.624 39.368 219.176 39.88 218.408 39.88C217.736 39.88 217.352 39.496 216.776 38.696ZM209.576 43.016L209.672 42.536C211.496 42.504 213.96 43.08 215.72 44.648C217.832 46.504 218.632 48.84 218.632 51.336C218.632 53.576 217.768 55.112 216.136 55.144C214.92 55.176 214.792 54.056 213.672 53.544C212.968 53.224 211.464 52.84 210.344 52.744L210.248 52.264C211.72 51.848 212.296 51.656 212.936 51.368C213.672 51.048 214.056 50.664 214.056 49.768C214.056 48.808 213.832 47.24 213.032 45.864C212.232 44.488 211.112 43.496 209.576 43.016ZM196.488 37.064V36.68C197.224 36.232 198.216 35.656 199.816 35.656C201.384 35.656 204.648 37.032 204.648 38.312C204.648 39.304 203.592 39.848 203.08 41.064L202.312 42.92C203.016 42.856 203.688 42.792 204.232 42.792C206.888 42.792 208.712 44.456 208.712 48.968C208.712 53.16 207.816 57.832 205.224 60.52C204.168 61.608 202.536 62.344 200.904 62.344C199.56 62.344 198.952 61.8 198.568 59.88C198.44 59.176 198.248 58.92 196.808 57.192L197.064 56.808C198.632 57.512 199.784 57.928 200.68 57.928C201.736 57.928 202.152 57.608 202.632 57.096C204.392 55.112 205.16 50.248 205.16 47.272C205.16 45.864 204.616 45.032 203.272 45.032C202.76 45.032 202.088 45.192 201.288 45.416L198.824 51.272C197.512 54.312 195.304 58.952 194.248 60.872C193.448 62.312 192.84 62.664 191.784 62.664C190.824 62.664 189.896 61.736 189.896 60.264C189.896 59.112 190.056 58.696 190.728 57.864C192.2 56.072 194.12 53.16 195.56 50.056C196.04 49.064 196.456 48.072 196.84 47.112L195.08 47.912C194.184 48.328 193.512 48.68 192.584 48.68C191.592 48.68 189.96 46.824 189.736 45.352C189.576 44.296 189.928 43.624 190.248 42.952L190.6 42.856C191.304 43.976 191.784 44.488 192.552 44.488C193.64 44.488 195.688 44.04 198.152 43.592C198.92 41.384 199.304 39.688 199.304 38.984C199.304 38.536 199.144 38.184 198.824 37.96C198.28 37.576 197.416 37.288 196.488 37.064Z" fill="#373737"/>
<path d="M233.274 72.1885L229.021 69.7676L228.628 68.8516C227.145 68.2845 225.728 67.4775 224.375 66.4307L224.179 65.1221L225.095 62.0469L226.142 61.5889L227.909 60.7383C228.519 59.2552 229.348 57.9248 230.395 56.7471C231.573 56.4417 232.75 55.9401 233.928 55.2422C236.284 48.9173 238.748 42.6361 241.322 36.3984C243.895 30.1172 246.076 23.7487 247.865 17.293L246.294 15.3301L242.303 18.4053L240.798 18.6016C240.188 20.957 239.882 23.3997 239.882 25.9297C240.929 27.1074 241.518 28.5033 241.649 30.1172C240.776 30.6842 240.406 31.404 240.537 32.2764C238.792 33.6286 236.807 34.3047 234.582 34.3047L229.479 31.8838L228.825 30.9678L226.404 30.1172C225.052 28.765 224.463 27.2165 224.637 25.4717C225.64 24.5993 226.295 23.487 226.6 22.1348L227.254 21.9385C227.123 20.1937 227.276 18.4925 227.712 16.835L227.058 15.1338C228.105 12.7783 229.588 10.641 231.507 8.72168L232.816 7.41309C233.688 5.93001 234.648 4.53418 235.695 3.22559L238.312 2.57129L238.116 1.45898L242.565 1.00098C245.924 2.17871 249.151 3.63997 252.248 5.38477L252.51 6.03906C253.688 6.3444 254.778 6.93327 255.782 7.80566L256.436 9.37598L257.156 9.83398L258.464 10.9463C258.29 11.8187 258.508 12.473 259.119 12.9092C260.602 15.2646 261.496 17.9691 261.801 21.0225C262.674 22.0693 262.957 23.3343 262.652 24.8174C261.91 26.126 261.321 27.5218 260.885 29.0049L258.006 31.6221L256.24 31.8838L255.585 32.7344C254.538 34.4792 253.513 36.2458 252.51 38.0342L251.594 38.4922C249.98 40.9785 248.606 43.5521 247.472 46.2129C246.382 48.8301 245.335 51.5345 244.331 54.3262L246.949 54.5225L254.015 53.8682L257.352 55.2422C257.788 57.2923 258.442 59.1898 259.315 60.9346L260.427 63.6172L260.231 65.3838L260.427 67.085L259.773 68.001L257.548 68.1973L257.352 68.8516C256.305 69.5931 255.062 69.9639 253.622 69.9639C251.093 69.3968 248.344 69.1787 245.378 69.3096C243.197 68.8734 240.929 68.5898 238.574 68.459C237.396 69.026 236.502 69.8984 235.891 71.0762L234.779 71.2725L234.124 72.1885H233.274ZM273.655 65.1328C272.427 64.9531 271.274 64.5788 270.196 64.0098L268.983 62.4375L268.489 62.0781V61.3145L268.13 60.8652C269.687 58.4095 270.525 55.7591 270.645 52.9141C270.765 50.0391 270.915 47.1341 271.094 44.1992V42.4922L270.96 41.998L270.6 41.6387L270.196 42.4922L269.612 42.9863C269.522 43.5553 269.238 44.0495 268.758 44.4688L267.366 45.3223L266.423 46.5352L265.03 46.8945L263.458 46.041C262.799 44.5736 262.185 43.0612 261.616 41.5039C262.185 40.0365 262.829 38.6289 263.548 37.2812C264.296 35.9336 264.835 34.4961 265.165 32.9688L265.794 33.1934C266.153 34.7806 266.228 36.3678 266.018 37.9551C267.336 36.9967 268.429 35.9036 269.298 34.6758C270.166 33.4479 271.005 32.265 271.813 31.127C272.801 29.5697 273.46 27.8926 273.79 26.0957L271.948 24.5234V24.0293C272.277 23.5202 272.801 23.3555 273.52 23.5352C275.257 23.8646 276.859 24.4336 278.327 25.2422L278.821 25.9609L279.674 26.9492L278.462 27.4434C277.713 29.0007 276.904 30.5579 276.036 32.1152C275.197 33.6426 274.568 35.2747 274.149 37.0117C274.269 39.4076 274.478 41.8034 274.778 44.1992C275.107 44.5286 275.512 44.6484 275.991 44.5586C277.309 44.319 278.626 44.0794 279.944 43.8398C281.262 43.6003 282.564 43.3906 283.852 43.2109L284.122 42.1328C283.792 40.4857 283.253 38.8984 282.505 37.3711C282.025 36.862 281.411 36.6523 280.663 36.7422L279.674 35.2598C278.866 34.6908 278.177 34.002 277.608 33.1934L277.339 32.3398L277.698 30.9922C278.866 31.8906 280.139 32.2949 281.516 32.2051L283.762 31.6211C285.32 31.112 286.877 30.6927 288.434 30.3633L288.524 29.4199C288.135 27.4434 287.326 25.6465 286.098 24.0293L285.335 23.2656C286.323 23.2057 287.191 22.9661 287.94 22.5469C288.928 22.9661 289.932 23.2656 290.95 23.4453C291.968 23.5951 292.926 23.9844 293.825 24.6133C294.064 25.8411 294.274 27.069 294.454 28.2969L294.948 28.4316C295.936 27.7728 297.074 27.4883 298.362 27.5781C299.35 28.0573 300.339 28.4616 301.327 28.791C302.315 29.1204 303.258 29.5697 304.157 30.1387L304.516 31.3516L303.169 32.6992C301.462 32.9987 299.74 33.0885 298.003 32.9688L300.698 34.9004C299.889 36.7871 299.081 38.5391 298.272 40.1562C299.56 39.6771 300.833 39.3926 302.09 39.3027C303.378 39.6322 304.681 40.0215 305.999 40.4707C307.316 40.9199 308.544 41.5189 309.682 42.2676C310.012 42.9863 310.146 43.75 310.087 44.5586L309.188 45.0527L308.964 45.6816C308.454 46.0111 307.84 46.1309 307.122 46.041C305.475 45.6217 303.798 45.2624 302.09 44.9629C299.036 45.0527 295.996 45.1725 292.971 45.3223C290.665 46.041 288.299 46.61 285.874 47.0293C283.478 47.4186 281.217 48.1973 279.09 49.3652C279.001 49.6647 278.746 49.7845 278.327 49.7246C278.327 50.2936 278.117 50.653 277.698 50.8027L276.485 49.4551L275.497 49.3652L275.137 48.9609C275.317 52.5247 275.482 56.0736 275.631 59.6074C275.542 61.4941 275.167 63.1263 274.508 64.5039L273.655 65.1328ZM285.11 64.998L283.268 64.1445L282.505 62.7969C283.014 61.5091 283.178 60.0866 282.999 58.5293C282.669 57.3913 282.46 56.2383 282.37 55.0703C282.31 53.8724 281.95 52.7793 281.292 51.791L280.932 51.1621L279.585 49.8145L280.034 49.3652C280.693 49.7546 281.471 49.9043 282.37 49.8145C283.927 49.3353 285.499 48.931 287.087 48.6016C288.644 48.362 290.111 48.0775 291.489 47.748C292.896 47.4186 294.244 47.0892 295.532 46.7598L296.924 46.4004C298.392 46.9095 299.844 47.4486 301.282 48.0176C302.719 48.5866 304.007 49.485 305.145 50.7129L305.864 52.2852L305.37 53.2734L304.157 53.9922L303.798 54.7109C302.51 55.6094 301.447 56.7624 300.608 58.1699C300.428 58.7389 300.099 59.2181 299.62 59.6074C298.212 60.7454 296.61 61.4492 294.813 61.7188C293.346 61.2995 291.788 61.0898 290.141 61.0898L288.299 61.9434L287.536 63.5156L286.952 63.9199L286.458 64.5039C285.949 64.5938 285.499 64.7585 285.11 64.998ZM291.983 57.7656L292.253 57.3164L293.106 57.0469C293.346 55.9987 293.6 54.9805 293.87 53.9922C294.169 53.0039 294.439 51.9857 294.678 50.9375C294.439 50.6081 294.079 50.4883 293.6 50.5781C292.612 50.9674 291.534 51.1921 290.366 51.252C289.228 51.2819 288.165 51.5065 287.176 51.9258L287.087 52.7793C287.715 54.3965 288.12 56.1484 288.299 58.0352L289.423 58.2598L291.983 57.7656ZM292.971 41.0098C293.121 39.8118 293.301 38.584 293.51 37.3262C293.72 36.0384 293.915 34.7806 294.094 33.5527C292.357 33.972 290.665 34.3464 289.018 34.6758C287.401 35.0052 285.844 35.4844 284.346 36.1133C285.574 36.862 286.802 37.5658 288.03 38.2246L288.434 39.0781C288.913 39.6471 289.243 40.291 289.423 41.0098C289.662 41.429 290.021 41.6387 290.501 41.6387C291.249 41.3092 292.073 41.0996 292.971 41.0098Z" fill="url(#paint0_linear_2985_1636)"/>
<path d="M82.584 15.596C82.884 16.028 83.316 16.76 83.544 17.18L82.548 17.612C82.284 17.12 81.924 16.436 81.588 16.004L82.584 15.596ZM73.452 24.38C73.86 24.416 74.4 24.452 74.94 24.452H80.484V19.484H75.084C74.58 19.484 73.932 19.508 73.596 19.532V17.864C74.052 17.912 74.664 17.936 75.084 17.936H80.868C80.64 17.444 80.28 16.808 79.98 16.388L80.964 15.98C81.264 16.412 81.684 17.144 81.9 17.588L81.072 17.936H81.12C81.48 17.936 81.972 17.924 82.176 17.912C82.164 18.188 82.14 18.668 82.14 19.016V25.232C82.14 25.652 82.164 26.288 82.2 26.648H80.46L80.472 26.024H74.988C74.52 26.024 73.836 26.06 73.452 26.096V24.38ZM88.26 16.604C89.832 16.796 93.288 17.492 94.8 18.02L94.188 19.52C92.796 19.004 89.388 18.236 87.696 18.02L88.26 16.604ZM87.708 19.832C89.424 20.12 92.472 20.768 93.984 21.296L93.396 22.796C92.016 22.268 88.944 21.572 87.156 21.284L87.708 19.832ZM87.096 23.264C89.148 23.588 92.844 24.452 94.488 25.064L93.828 26.564C92.208 25.892 88.416 25.064 86.496 24.776L87.096 23.264ZM105.024 22.784V23.564H107.328V22.784H105.024ZM105.024 21.728H107.328V20.984H105.024V21.728ZM105.024 24.62V25.424H107.328V24.62H105.024ZM103.632 19.712H108.792V26.972H107.328V26.588H105.024V27.044H103.632V19.712ZM104.664 15.716L106.068 16.064C105.972 16.34 105.864 16.604 105.756 16.868H109.164V18.068H107.076C107.316 18.416 107.544 18.764 107.664 19.04L106.44 19.532C106.284 19.148 105.924 18.56 105.564 18.068H105.12C104.784 18.62 104.4 19.124 104.028 19.508C103.752 19.268 103.14 18.872 102.804 18.692C103.02 18.512 103.224 18.296 103.416 18.056H101.808C101.976 18.38 102.132 18.704 102.228 18.956L101.508 19.292H101.7V20.456H103.332V21.752H101.7V21.992C102.252 22.436 103.284 23.408 103.56 23.684L102.648 24.8C102.432 24.476 102.072 24.008 101.7 23.564V27.08H100.32V23.804C99.852 24.572 99.312 25.292 98.796 25.808C98.592 25.472 98.22 24.968 97.92 24.692C98.688 24.044 99.528 22.868 100.056 21.752H98.364V20.456H100.32V19.292H100.944C100.812 18.932 100.584 18.464 100.356 18.056H100.26C99.912 18.656 99.54 19.184 99.168 19.604C98.892 19.376 98.304 19.004 97.956 18.824C98.736 18.08 99.42 16.88 99.804 15.716L101.184 16.064C101.088 16.328 100.98 16.592 100.86 16.856H103.524V17.912C104.004 17.276 104.412 16.496 104.664 15.716ZM111.588 17.804H115.788V15.8H117.276V17.804H121.5V25.436C121.5 26.204 121.332 26.612 120.828 26.84C120.324 27.068 119.568 27.092 118.5 27.092C118.44 26.684 118.224 26.036 118.02 25.664C118.728 25.7 119.532 25.688 119.772 25.688C119.988 25.676 120.072 25.616 120.072 25.412V19.208H117.264C117.24 19.652 117.192 20.108 117.096 20.576C118.116 21.5 119.424 22.736 120.072 23.576L118.884 24.512C118.404 23.84 117.492 22.868 116.616 21.98C116.148 23.012 115.344 23.984 114.036 24.764C113.832 24.476 113.376 23.972 113.028 23.696V27.104H111.588V17.804ZM113.028 23.648C115.308 22.472 115.716 20.684 115.776 19.208H113.028V23.648ZM128.712 18.596C126.732 19.004 125.664 20.756 125.664 22.076C125.664 23.288 126.144 23.876 126.612 23.876C127.116 23.876 127.584 23.12 128.076 21.5C128.352 20.612 128.58 19.592 128.712 18.596ZM130.344 18.56C130.176 19.58 129.972 20.684 129.624 21.812C128.904 24.236 127.872 25.724 126.564 25.724C125.232 25.724 124.128 24.26 124.128 22.232C124.128 19.46 126.528 17.096 129.636 17.096C132.612 17.096 134.484 19.16 134.484 21.776C134.484 24.308 132.936 26.096 129.912 26.564L129.012 25.136C129.468 25.088 129.804 25.016 130.128 24.944C131.664 24.584 132.864 23.48 132.864 21.728C132.864 20.072 131.964 18.836 130.344 18.56ZM136.788 23.192H143.94L144.036 22.232H140.184L140.1 22.592L138.648 22.472C138.984 21.236 139.38 19.244 139.62 17.696H138.42V19.28H136.98V16.364H147.456V19.28H145.956V17.696H140.292L141.072 17.768L140.904 18.728H145.344V19.964H140.664L140.46 20.984H145.584C145.584 20.984 145.56 21.392 145.524 21.584L145.368 23.192H147.636V24.512H145.2C145.008 25.628 144.792 26.228 144.492 26.528C144.144 26.9 143.784 27.008 143.244 27.056C142.8 27.104 142.032 27.092 141.252 27.056C141.228 26.66 141.036 26.084 140.772 25.7C141.564 25.772 142.368 25.784 142.704 25.784C142.956 25.784 143.124 25.76 143.28 25.628C143.448 25.484 143.604 25.136 143.736 24.512H136.788V23.192ZM152.832 20.54V21.056H157.38V20.54H152.832ZM152.832 21.86V22.388H157.38V21.86H152.832ZM152.832 19.22V19.736H157.38V19.22H152.832ZM149.688 23.696H160.404V24.872H157.14C158.376 25.28 159.732 25.784 160.56 26.132L159.324 27.092C158.532 26.696 157.176 26.12 155.88 25.676L156.708 24.872H153.12L154.236 25.664C153.3 26.228 151.788 26.816 150.6 27.104C150.372 26.816 149.94 26.384 149.628 26.108C150.792 25.856 152.208 25.328 152.964 24.872H149.688V23.696ZM151.452 18.368H154.26V17.864H150.048V16.664H154.26V15.8H155.772V16.664H160.152V17.864H155.772V18.368H158.844V23.228H151.452V18.368ZM172.704 20.888C172.32 20.996 171.684 21.236 171.276 21.392C170.736 21.608 170.052 21.872 169.32 22.208L169.368 24.32H167.928C167.964 23.96 167.976 23.384 167.976 22.868C167.088 23.372 166.608 23.84 166.608 24.44C166.608 25.1 167.172 25.28 168.348 25.28C169.368 25.28 170.7 25.148 171.756 24.944L171.708 26.492C170.916 26.6 169.44 26.696 168.312 26.696C166.428 26.696 165.036 26.24 165.036 24.692C165.036 23.156 166.476 22.208 167.832 21.488C167.652 21.188 167.328 21.08 167.004 21.08C166.332 21.08 165.588 21.464 165.132 21.908C164.772 22.268 164.424 22.7 164.016 23.228L162.732 22.268C163.992 21.104 164.832 20.036 165.372 18.956H165.228C164.736 18.956 163.86 18.932 163.2 18.884V17.48C163.812 17.576 164.7 17.624 165.312 17.624H165.888C166.02 17.144 166.104 16.676 166.128 16.244L167.712 16.376C167.652 16.664 167.568 17.084 167.424 17.576C168.552 17.516 169.752 17.408 170.808 17.228L170.796 18.62C169.656 18.788 168.168 18.884 166.884 18.92C166.68 19.364 166.44 19.796 166.2 20.144C166.512 20 167.16 19.904 167.556 19.904C168.288 19.904 168.888 20.216 169.152 20.828C169.776 20.54 170.28 20.336 170.772 20.12C171.24 19.916 171.66 19.724 172.104 19.496L172.704 20.888ZM180.888 18.476V18.992H184.2V18.476H180.888ZM180.888 17.096V17.6H184.2V17.096H180.888ZM179.568 16.16H185.58V19.928H179.568V16.16ZM176.388 15.8H177.672V18.08H178.608V19.4H177.672V21.104L178.524 20.864V20.348H186.396V21.464H182.472V25.988C182.904 25.796 183.276 25.508 183.6 25.16C183.252 24.608 182.964 23.996 182.748 23.336L183.768 23.084C183.9 23.468 184.068 23.828 184.284 24.176C184.464 23.816 184.608 23.408 184.716 22.976H182.64V21.896H185.136L185.352 21.872L186.108 22.016C185.928 23.324 185.592 24.368 185.1 25.184C185.508 25.58 185.988 25.904 186.528 26.12C186.252 26.348 185.892 26.804 185.724 27.104C185.22 26.852 184.764 26.528 184.368 26.12C183.972 26.516 183.516 26.828 183 27.08C182.892 26.84 182.676 26.504 182.472 26.24V27.128H181.284V26.06L178.572 26.588L178.26 25.388L179.232 25.256V21.464H178.656L178.752 22.148L177.672 22.472V25.58C177.672 26.24 177.564 26.6 177.204 26.816C176.844 27.032 176.328 27.08 175.56 27.08C175.524 26.732 175.368 26.156 175.188 25.772C175.632 25.796 176.052 25.796 176.196 25.796C176.34 25.796 176.388 25.748 176.388 25.58V22.844L175.26 23.168L174.948 21.788C175.356 21.704 175.848 21.584 176.388 21.44V19.4H175.164V18.08H176.388V15.8ZM180.372 21.464V22.004H181.284V21.464H180.372ZM180.372 22.94V23.492H181.284V22.94H180.372ZM180.372 24.428V25.088L181.284 24.956V24.428H180.372ZM194.148 25.292C194.076 24.512 193.632 24.008 192.984 24.008C192.528 24.008 192.24 24.284 192.24 24.584C192.24 25.028 192.72 25.328 193.452 25.328C193.704 25.328 193.932 25.316 194.148 25.292ZM190.2 16.856C190.536 16.904 190.956 16.916 191.292 16.916C191.928 16.916 194.496 16.868 195.18 16.808C195.672 16.76 195.948 16.724 196.092 16.676L196.872 17.744C196.596 17.924 196.308 18.092 196.032 18.296C195.384 18.752 194.124 19.808 193.368 20.408C193.764 20.312 194.124 20.276 194.508 20.276C196.548 20.276 198.096 21.548 198.096 23.3C198.096 25.196 196.656 26.696 193.752 26.696C192.084 26.696 190.824 25.928 190.824 24.728C190.824 23.756 191.7 22.856 192.972 22.856C194.46 22.856 195.36 23.768 195.528 24.908C196.188 24.56 196.524 24.008 196.524 23.276C196.524 22.196 195.444 21.464 194.028 21.464C192.192 21.464 190.992 22.436 189.708 23.9L188.616 22.772C189.468 22.088 190.92 20.864 191.628 20.276C192.3 19.724 193.548 18.716 194.136 18.2C193.524 18.212 191.868 18.284 191.232 18.32C190.908 18.344 190.524 18.38 190.248 18.416L190.2 16.856ZM204.36 16.436C204.816 17.684 205.38 18.848 205.872 19.76C206.844 19.184 207.888 18.668 208.452 18.344C208.908 18.08 209.256 17.876 209.568 17.612L210.396 19.004C210.036 19.22 209.652 19.424 209.208 19.652C208.464 20.024 206.952 20.72 205.86 21.428C204.864 22.088 204.192 22.772 204.192 23.612C204.192 24.476 205.02 24.932 206.688 24.932C207.924 24.932 209.544 24.752 210.612 24.488L210.588 26.216C209.568 26.396 208.296 26.516 206.736 26.516C204.348 26.516 202.536 25.856 202.536 23.792C202.536 22.46 203.388 21.488 204.54 20.636C203.976 19.616 203.4 18.32 202.86 17.048L204.36 16.436Z" fill="#373737"/>
<g filter="url(#filter0_d_2985_1636)">
<path fill-rule="evenodd" clip-rule="evenodd" d="M33 13C19.1929 13 8 24.1929 8 38C8 51.8071 19.1929 63 33 63C46.8071 63 58 51.8071 58 38C58 24.1929 46.8071 13 33 13ZM4 38C4 21.9837 16.9837 9 33 9C49.0163 9 62 21.9837 62 38C62 54.0163 49.0163 67 33 67C16.9837 67 4 54.0163 4 38Z" fill="white"/>
<path d="M33 63C46.8071 63 58 51.8071 58 38C58 24.1929 46.8071 13 33 13C19.1929 13 8 24.1929 8 38C8 51.8071 19.1929 63 33 63Z" fill="url(#paint1_linear_2985_1636)"/>
<path fill-rule="evenodd" clip-rule="evenodd" d="M33 59C44.598 59 54 49.598 54 38C54 26.402 44.598 17 33 17C21.402 17 12 26.402 12 38C12 49.598 21.402 59 33 59ZM58 38C58 51.8071 46.8071 63 33 63C19.1929 63 8 51.8071 8 38C8 24.1929 19.1929 13 33 13C46.8071 13 58 24.1929 58 38Z" fill="url(#paint2_linear_2985_1636)"/>
<path d="M23 30C26.866 30 30 26.866 30 23C30 19.134 26.866 16 23 16C19.134 16 16 19.134 16 23C16 26.866 19.134 30 23 30Z" fill="white" fill-opacity="0.67"/>
<path d="M35.4084 38.8639C35.7924 39.6959 36.2084 40.5172 36.6564 41.3279C37.1257 42.1386 37.6377 42.9172 38.1924 43.6639C38.6404 42.9812 39.0671 42.2026 39.4724 41.3279C39.8777 40.4532 40.1764 39.6319 40.3684 38.8639H35.4084ZM31.3124 30.8639C31.3124 31.3119 31.1524 31.6639 30.8324 31.9199C30.5124 32.1759 30.1284 32.3039 29.6804 32.3039H27.3764C27.3764 32.9652 27.3764 33.6266 27.3764 34.2879C27.3977 34.9492 27.4084 35.6212 27.4084 36.3039C27.5791 36.2399 27.7924 36.1439 28.0484 36.0159C28.3257 35.8879 28.6031 35.7599 28.8804 35.6319C29.2217 35.4612 29.5417 35.3226 29.8404 35.2159C30.1391 35.0879 30.3311 35.0239 30.4164 35.0239C30.5871 35.0239 30.6724 35.0879 30.6724 35.2159C30.6724 35.4079 30.5337 35.6852 30.2564 36.0479C30.0004 36.3892 29.6804 36.7519 29.2964 37.1359C28.9124 37.5199 28.5391 37.8719 28.1764 38.1919C27.8351 38.4906 27.5791 38.7039 27.4084 38.8319V47.3439C27.4084 48.2399 27.3444 49.0932 27.2164 49.9039C27.1097 50.6932 26.8004 51.3332 26.2884 51.8239C25.7977 52.3359 24.9657 52.5919 23.7924 52.5919C22.9604 52.5919 22.1177 52.3786 21.2644 51.9519C20.4324 51.5466 19.7284 51.0772 19.1524 50.5439C19.0457 50.4372 18.9924 50.3412 18.9924 50.2559C18.9924 50.1492 19.0244 50.0746 19.0884 50.0319C19.1737 50.0106 19.2591 49.9999 19.3444 49.9999C19.4297 49.9999 19.5151 49.9999 19.6004 49.9999C19.7071 50.0212 19.8031 50.0426 19.8884 50.0639C19.9737 50.0852 20.0697 50.0959 20.1764 50.0959C20.2831 50.1172 20.3791 50.1492 20.4644 50.1919C20.6564 50.2132 20.8484 50.2452 21.0404 50.2879C21.2537 50.3306 21.4564 50.3519 21.6484 50.3519C22.4377 50.3519 22.9497 50.0746 23.1844 49.5199C23.4191 48.9439 23.5364 48.2932 23.5364 47.5679C23.5364 46.5012 23.5364 45.4239 23.5364 44.3359C23.5364 43.2479 23.5257 42.1706 23.5044 41.1039C22.9924 41.4452 22.4484 41.7866 21.8724 42.1279C21.3177 42.4479 20.7204 42.7359 20.0804 42.9919L18.1924 39.7919C19.1097 39.4719 20.0057 39.1519 20.8804 38.8319C21.7551 38.5119 22.6297 38.2026 23.5044 37.9039C23.5044 36.9652 23.4937 36.0372 23.4724 35.1199C23.4724 34.1812 23.4724 33.2426 23.4724 32.3039H19.2484V30.7999H23.4724C23.4724 29.6692 23.4617 28.5386 23.4404 27.4079C23.4404 26.2772 23.4404 25.1252 23.4404 23.9519H27.3444V30.7999H28.2404C28.2831 30.4586 28.4537 30.1492 28.7524 29.8719C29.0724 29.5946 29.4137 29.4559 29.7764 29.4559C30.2031 29.4559 30.5657 29.5946 30.8644 29.8719C31.1631 30.1492 31.3124 30.4799 31.3124 30.8639ZM49.9364 51.2479C49.9364 51.6746 49.7657 52.0372 49.4244 52.3359C49.1044 52.6559 48.7097 52.8159 48.2404 52.8159C47.7071 52.8159 47.0564 52.6986 46.2884 52.4639C45.5417 52.2506 44.7951 51.9839 44.0484 51.6639C43.3231 51.3439 42.7151 51.0666 42.2244 50.8319C41.5204 50.4692 40.8377 50.0639 40.1764 49.6159C39.5151 49.1466 38.8751 48.6772 38.2564 48.2079C36.9124 49.3172 35.3337 50.1812 33.5204 50.7999C31.7284 51.4399 29.9684 51.7599 28.2404 51.7599H28.1124C28.0271 51.7599 27.9631 51.7492 27.9204 51.7279C27.7497 51.6852 27.6644 51.6106 27.6644 51.5039C27.6644 51.3972 27.7071 51.3119 27.7924 51.2479C27.8991 51.2052 27.9951 51.1732 28.0804 51.1519C28.3791 51.0452 28.6777 50.9279 28.9764 50.7999C29.2751 50.6932 29.5737 50.5652 29.8724 50.4159C30.8751 49.9466 31.9311 49.3279 33.0404 48.5599C34.1711 47.7706 35.1311 46.9812 35.9204 46.1919C35.1311 45.4239 34.4057 44.6026 33.7444 43.7279C33.0831 42.8319 32.4537 41.9252 31.8564 41.0079C32.3257 40.6452 32.7737 40.2826 33.2004 39.9199C33.6484 39.5572 34.0964 39.2052 34.5444 38.8639H30.8324V37.1679H44.5924C44.8057 37.1679 44.9764 37.1999 45.1044 37.2639C45.2537 37.3279 45.3284 37.4772 45.3284 37.7119C45.3284 38.2879 45.1577 38.9706 44.8164 39.7599C44.4964 40.5492 44.0804 41.3599 43.5684 42.1919C43.0777 43.0239 42.5657 43.7919 42.0324 44.4959C41.4991 45.1999 41.0297 45.7652 40.6244 46.1919C41.4991 47.0666 42.4591 47.9199 43.5044 48.7519C44.5497 49.5839 45.6057 50.2986 46.6724 50.8959C46.8217 50.5759 47.0457 50.3092 47.3444 50.0959C47.6644 49.8826 48.0164 49.7759 48.4004 49.7759C48.7844 49.7759 49.1364 49.9252 49.4564 50.2239C49.7764 50.5439 49.9364 50.8852 49.9364 51.2479ZM49.8724 32.2399C49.8724 32.5172 49.7977 32.7839 49.6484 33.0399C49.4991 33.2746 49.3284 33.4879 49.1364 33.6799C48.4751 34.2986 47.6431 34.7786 46.6404 35.1199C45.6377 35.4399 44.6777 35.5999 43.7604 35.5999C42.6084 35.5999 41.6804 35.4826 40.9764 35.2479C40.2724 35.0132 39.7604 34.5866 39.4404 33.9679C39.1204 33.3279 38.9604 32.3999 38.9604 31.1839C38.9604 30.3732 38.9604 29.5519 38.9604 28.7199C38.9817 27.8666 39.0031 27.0239 39.0244 26.1919H36.6244C36.5817 27.6639 36.4217 29.1146 36.1444 30.5439C35.8884 31.9732 35.2591 33.2852 34.2564 34.4799C34.0004 34.7572 33.6697 35.0666 33.2644 35.4079C32.8804 35.7492 32.5284 36.0266 32.2084 36.2399C32.0591 36.3252 31.8884 36.4212 31.6964 36.5279C31.5044 36.6132 31.2911 36.6559 31.0564 36.6559C30.9924 36.6559 30.8964 36.6452 30.7684 36.6239C30.6617 36.5812 30.6084 36.5172 30.6084 36.4319C30.6084 36.3039 30.6404 36.2079 30.7044 36.1439C30.7257 36.1012 30.7471 36.0586 30.7684 36.0159C30.7897 35.9732 30.8111 35.9412 30.8324 35.9199C31.1524 35.4719 31.4084 35.0452 31.6004 34.6399C31.7924 34.2132 31.9631 33.7332 32.1124 33.1999C32.2831 32.5812 32.3897 31.9092 32.4324 31.1839C32.4964 30.4586 32.5391 29.7226 32.5604 28.9759C32.5604 28.2292 32.5497 27.4826 32.5284 26.7359C32.5071 25.9892 32.4964 25.2852 32.4964 24.6239H43.1524C43.1311 25.7332 43.0884 26.8426 43.0244 27.9519C42.9817 29.0399 42.9604 30.1172 42.9604 31.1839C42.9604 31.9732 43.1097 32.5706 43.4084 32.9759C43.7071 33.3812 44.2404 33.5839 45.0084 33.5839C45.3497 33.5839 45.7124 33.5626 46.0964 33.5199C46.4804 33.4559 46.8217 33.3599 47.1204 33.2319C46.9711 33.1039 46.8324 32.9652 46.7044 32.8159C46.5764 32.6666 46.5124 32.4959 46.5124 32.3039C46.5124 31.7919 46.6937 31.4079 47.0564 31.1519C47.4191 30.8746 47.8457 30.7359 48.3364 30.7359C48.7844 30.7359 49.1471 30.8852 49.4244 31.1839C49.7231 31.4826 49.8724 31.8346 49.8724 32.2399Z" fill="url(#paint3_linear_2985_1636)"/>
</g>
</g>
<defs>
<filter id="filter0_d_2985_1636" x="0" y="9" width="66" height="66" filterUnits="userSpaceOnUse" color-interpolation-filters="sRGB">
<feFlood flood-opacity="0" result="BackgroundImageFix"/>
<feColorMatrix in="SourceAlpha" type="matrix" values="0 0 0 0 0 0 0 0 0 0 0 0 0 0 0 0 0 0 127 0" result="hardAlpha"/>
<feOffset dy="4"/>
<feGaussianBlur stdDeviation="2"/>
<feComposite in2="hardAlpha" operator="out"/>
<feColorMatrix type="matrix" values="0 0 0 0 0 0 0 0 0 0 0 0 0 0 0 0 0 0 0.25 0"/>
<feBlend mode="normal" in2="BackgroundImageFix" result="effect1_dropShadow_2985_1636"/>
<feBlend mode="normal" in="SourceGraphic" in2="effect1_dropShadow_2985_1636" result="shape"/>
</filter>
<linearGradient id="paint0_linear_2985_1636" x1="186" y1="15.5" x2="287" y2="71" gradientUnits="userSpaceOnUse">
<stop stop-color="#FF2121"/>
<stop offset="1" stop-color="#FF8800"/>
</linearGradient>
<linearGradient id="paint1_linear_2985_1636" x1="6.18251" y1="37.5709" x2="59.8862" y2="37.5709" gradientUnits="userSpaceOnUse">
<stop stop-color="#FF3B00"/>
<stop offset="0.5" stop-color="#FBD023"/>
<stop offset="1" stop-color="#FF3C00"/>
</linearGradient>
<linearGradient id="paint2_linear_2985_1636" x1="17.6879" y1="18.5216" x2="48.3121" y2="57.4784" gradientUnits="userSpaceOnUse">
<stop stop-color="#FE660A"/>
<stop offset="0.165505" stop-color="#FF5B03"/>
<stop offset="0.375091" stop-color="#FFC892"/>
<stop offset="0.50388" stop-color="#FFCE2E"/>
<stop offset="0.659632" stop-color="#FF5618"/>
<stop offset="0.860606" stop-color="#FF9500"/>
<stop offset="1" stop-color="#FF6201"/>
</linearGradient>
<linearGradient id="paint3_linear_2985_1636" x1="22.5" y1="24" x2="46.5" y2="53" gradientUnits="userSpaceOnUse">
<stop offset="0.3" stop-color="white"/>
<stop offset="1" stop-color="#FFFF00"/>
</linearGradient>
<clipPath id="clip0_2985_1636">
<rect width="314" height="78" fill="white"/>
</clipPath>
</defs>
</svg>
