<svg width="362" height="45" viewBox="0 0 362 45" fill="none" xmlns="http://www.w3.org/2000/svg">
<path fill-rule="evenodd" clip-rule="evenodd" d="M328.5 7C331.538 7 334 4.53757 334 1.5C334 0.979988 333.928 0.476832 333.793 0H349C343.477 0 339 4.47715 339 10C339 15.5228 343.477 20 349 20C354.523 20 359 15.5228 359 10C359 4.47715 354.523 0 349 0H362V26.2516C359.376 24.2135 356.08 23 352.5 23C343.94 23 337 29.9396 337 38.5C337 40.8212 337.51 43.0232 338.425 45H0V41.9205C1.69607 42.6164 3.55323 43 5.5 43C13.5081 43 20 36.5081 20 28.5C20 20.4919 13.5081 14 5.5 14C3.55323 14 1.69607 14.3837 0 15.0795V0H10.5155C9.55827 1.4301 9 3.14985 9 5C9 9.97056 13.0294 14 18 14C22.9706 14 27 9.97056 27 5C27 3.14985 26.4417 1.4301 25.4845 0H323.207C323.072 0.476832 323 0.979988 323 1.5C323 4.53757 325.462 7 328.5 7ZM36 35C36 38.3137 33.3137 41 30 41C26.6863 41 24 38.3137 24 35C24 31.6863 26.6863 29 30 29C33.3137 29 36 31.6863 36 35Z" fill="white"/>
</svg>
