<svg width="51" height="37" viewBox="0 0 51 37" fill="none" xmlns="http://www.w3.org/2000/svg">
<path d="M38 12L36.1644 36L15.8356 36L14 12" stroke="white" stroke-width="2" stroke-linecap="round" stroke-linejoin="round"/>
<rect x="17.9404" y="30.3662" width="5" height="5" transform="rotate(-43.2428 17.9404 30.3662)" fill="white"/>
<circle cx="29.5" cy="31.5" r="2.5" fill="white"/>
<path d="M32.2309 23.2525L32.7129 28.4263L27.9913 26.2568L32.2309 23.2525Z" fill="white"/>
<path fill-rule="evenodd" clip-rule="evenodd" d="M1 7.5C5.14214 7.5 8.5 4.14214 8.5 0C8.5 4.14214 11.8579 7.5 16 7.5C11.8579 7.5 8.5 10.8579 8.5 15C8.5 10.8579 5.14214 7.5 1 7.5Z" fill="white"/>
<path fill-rule="evenodd" clip-rule="evenodd" d="M40 26C42.7614 26 45 23.7614 45 21C45 23.7614 47.2386 26 50 26C47.2386 26 45 28.2386 45 31C45 28.2386 42.7614 26 40 26Z" fill="white"/>
</svg>
