<svg width="51" height="37" viewBox="0 0 51 37" fill="none" xmlns="http://www.w3.org/2000/svg">
<path d="M38 12L36.1644 36L15.8356 36L14 12" stroke="white" stroke-width="2" stroke-linecap="round" stroke-linejoin="round"/>
<rect x="17.9404" y="30.3662" width="5" height="5" transform="rotate(-43.2428 17.9404 30.3662)" fill="white"/>
<rect x="26.5488" y="16.6387" width="5" height="5" transform="rotate(-12.5856 26.5488 16.6387)" fill="white"/>
<rect x="29" y="10.4255" width="5" height="5" transform="rotate(-43.2428 29 10.4255)" fill="white"/>
<rect x="40" y="28.8562" width="5" height="5" transform="rotate(-50.4645 40 28.8562)" fill="white"/>
<rect x="15" y="8.42554" width="5" height="5" transform="rotate(-43.2428 15 8.42554)" fill="white"/>
<circle cx="29.5" cy="31.5" r="2.5" fill="white"/>
<circle cx="24.5" cy="23.5" r="2.5" fill="white"/>
<circle cx="24.5" cy="12.5" r="2.5" fill="white"/>
<circle cx="28.5" cy="3.5" r="2.5" fill="white"/>
<circle cx="10.5" cy="33.5" r="2.5" fill="white"/>
<circle cx="47.5" cy="33.5" r="2.5" fill="white"/>
<path d="M33.2309 22.2525L33.7129 27.4263L28.9913 25.2568L33.2309 22.2525Z" fill="white"/>
<path d="M4 31L6.59808 35.5H1.40192L4 31Z" fill="white"/>
<path d="M7.23091 26.2525L7.71294 31.4263L2.99133 29.2568L7.23091 26.2525Z" fill="white"/>
<path d="M41 31L43.5981 35.5H38.4019L41 31Z" fill="white"/>
<path d="M18.5531 15.3386L22.9767 18.0647L18.404 20.5326L18.5531 15.3386Z" fill="white"/>
</svg>
