<svg width="58" height="58" viewBox="0 0 58 58" fill="none" xmlns="http://www.w3.org/2000/svg">
<circle cx="29" cy="29" r="27" fill="#525252" stroke="white" stroke-width="4"/>
<circle cx="18" cy="15" r="7" fill="#ACACAC"/>
<path d="M31.408 29.864C31.792 30.696 32.208 31.5173 32.656 32.328C33.1253 33.1387 33.6373 33.9173 34.192 34.664C34.64 33.9813 35.0667 33.2027 35.472 32.328C35.8773 31.4533 36.176 30.632 36.368 29.864H31.408ZM27.312 21.864C27.312 22.312 27.152 22.664 26.832 22.92C26.512 23.176 26.128 23.304 25.68 23.304H23.376C23.376 23.9653 23.376 24.6267 23.376 25.288C23.3973 25.9493 23.408 26.6213 23.408 27.304C23.5787 27.24 23.792 27.144 24.048 27.016C24.3253 26.888 24.6027 26.76 24.88 26.632C25.2213 26.4613 25.5413 26.3227 25.84 26.216C26.1387 26.088 26.3307 26.024 26.416 26.024C26.5867 26.024 26.672 26.088 26.672 26.216C26.672 26.408 26.5333 26.6853 26.256 27.048C26 27.3893 25.68 27.752 25.296 28.136C24.912 28.52 24.5387 28.872 24.176 29.192C23.8347 29.4907 23.5787 29.704 23.408 29.832V38.344C23.408 39.24 23.344 40.0933 23.216 40.904C23.1093 41.6933 22.8 42.3333 22.288 42.824C21.7973 43.336 20.9653 43.592 19.792 43.592C18.96 43.592 18.1173 43.3787 17.264 42.952C16.432 42.5467 15.728 42.0773 15.152 41.544C15.0453 41.4373 14.992 41.3413 14.992 41.256C14.992 41.1493 15.024 41.0747 15.088 41.032C15.1733 41.0107 15.2587 41 15.344 41C15.4293 41 15.5147 41 15.6 41C15.7067 41.0213 15.8027 41.0427 15.888 41.064C15.9733 41.0853 16.0693 41.096 16.176 41.096C16.2827 41.1173 16.3787 41.1493 16.464 41.192C16.656 41.2133 16.848 41.2453 17.04 41.288C17.2533 41.3307 17.456 41.352 17.648 41.352C18.4373 41.352 18.9493 41.0747 19.184 40.52C19.4187 39.944 19.536 39.2933 19.536 38.568C19.536 37.5013 19.536 36.424 19.536 35.336C19.536 34.248 19.5253 33.1707 19.504 32.104C18.992 32.4453 18.448 32.7867 17.872 33.128C17.3173 33.448 16.72 33.736 16.08 33.992L14.192 30.792C15.1093 30.472 16.0053 30.152 16.88 29.832C17.7547 29.512 18.6293 29.2027 19.504 28.904C19.504 27.9653 19.4933 27.0373 19.472 26.12C19.472 25.1813 19.472 24.2427 19.472 23.304H15.248V21.8H19.472C19.472 20.6693 19.4613 19.5387 19.44 18.408C19.44 17.2773 19.44 16.1253 19.44 14.952H23.344V21.8H24.24C24.2827 21.4587 24.4533 21.1493 24.752 20.872C25.072 20.5947 25.4133 20.456 25.776 20.456C26.2027 20.456 26.5653 20.5947 26.864 20.872C27.1627 21.1493 27.312 21.48 27.312 21.864ZM45.936 42.248C45.936 42.6747 45.7653 43.0373 45.424 43.336C45.104 43.656 44.7093 43.816 44.24 43.816C43.7067 43.816 43.056 43.6987 42.288 43.464C41.5413 43.2507 40.7947 42.984 40.048 42.664C39.3227 42.344 38.7147 42.0667 38.224 41.832C37.52 41.4693 36.8373 41.064 36.176 40.616C35.5147 40.1467 34.8747 39.6773 34.256 39.208C32.912 40.3173 31.3333 41.1813 29.52 41.8C27.728 42.44 25.968 42.76 24.24 42.76H24.112C24.0267 42.76 23.9627 42.7493 23.92 42.728C23.7493 42.6853 23.664 42.6107 23.664 42.504C23.664 42.3973 23.7067 42.312 23.792 42.248C23.8987 42.2053 23.9947 42.1733 24.08 42.152C24.3787 42.0453 24.6773 41.928 24.976 41.8C25.2747 41.6933 25.5733 41.5653 25.872 41.416C26.8747 40.9467 27.9307 40.328 29.04 39.56C30.1707 38.7707 31.1307 37.9813 31.92 37.192C31.1307 36.424 30.4053 35.6027 29.744 34.728C29.0827 33.832 28.4533 32.9253 27.856 32.008C28.3253 31.6453 28.7733 31.2827 29.2 30.92C29.648 30.5573 30.096 30.2053 30.544 29.864H26.832V28.168H40.592C40.8053 28.168 40.976 28.2 41.104 28.264C41.2533 28.328 41.328 28.4773 41.328 28.712C41.328 29.288 41.1573 29.9707 40.816 30.76C40.496 31.5493 40.08 32.36 39.568 33.192C39.0773 34.024 38.5653 34.792 38.032 35.496C37.4987 36.2 37.0293 36.7653 36.624 37.192C37.4987 38.0667 38.4587 38.92 39.504 39.752C40.5493 40.584 41.6053 41.2987 42.672 41.896C42.8213 41.576 43.0453 41.3093 43.344 41.096C43.664 40.8827 44.016 40.776 44.4 40.776C44.784 40.776 45.136 40.9253 45.456 41.224C45.776 41.544 45.936 41.8853 45.936 42.248ZM45.872 23.24C45.872 23.5173 45.7973 23.784 45.648 24.04C45.4987 24.2747 45.328 24.488 45.136 24.68C44.4747 25.2987 43.6427 25.7787 42.64 26.12C41.6373 26.44 40.6773 26.6 39.76 26.6C38.608 26.6 37.68 26.4827 36.976 26.248C36.272 26.0133 35.76 25.5867 35.44 24.968C35.12 24.328 34.96 23.4 34.96 22.184C34.96 21.3733 34.96 20.552 34.96 19.72C34.9813 18.8667 35.0027 18.024 35.024 17.192H32.624C32.5813 18.664 32.4213 20.1147 32.144 21.544C31.888 22.9733 31.2587 24.2853 30.256 25.48C30 25.7573 29.6693 26.0667 29.264 26.408C28.88 26.7493 28.528 27.0267 28.208 27.24C28.0587 27.3253 27.888 27.4213 27.696 27.528C27.504 27.6133 27.2907 27.656 27.056 27.656C26.992 27.656 26.896 27.6453 26.768 27.624C26.6613 27.5813 26.608 27.5173 26.608 27.432C26.608 27.304 26.64 27.208 26.704 27.144C26.7253 27.1013 26.7467 27.0587 26.768 27.016C26.7893 26.9733 26.8107 26.9413 26.832 26.92C27.152 26.472 27.408 26.0453 27.6 25.64C27.792 25.2133 27.9627 24.7333 28.112 24.2C28.2827 23.5813 28.3893 22.9093 28.432 22.184C28.496 21.4587 28.5387 20.7227 28.56 19.976C28.56 19.2293 28.5493 18.4827 28.528 17.736C28.5067 16.9893 28.496 16.2853 28.496 15.624H39.152C39.1307 16.7333 39.088 17.8427 39.024 18.952C38.9813 20.04 38.96 21.1173 38.96 22.184C38.96 22.9733 39.1093 23.5707 39.408 23.976C39.7067 24.3813 40.24 24.584 41.008 24.584C41.3493 24.584 41.712 24.5627 42.096 24.52C42.48 24.456 42.8213 24.36 43.12 24.232C42.9707 24.104 42.832 23.9653 42.704 23.816C42.576 23.6667 42.512 23.496 42.512 23.304C42.512 22.792 42.6933 22.408 43.056 22.152C43.4187 21.8747 43.8453 21.736 44.336 21.736C44.784 21.736 45.1467 21.8853 45.424 22.184C45.7227 22.4827 45.872 22.8347 45.872 23.24Z" fill="white"/>
</svg>
