<svg width="58" height="58" viewBox="0 0 58 58" fill="none" xmlns="http://www.w3.org/2000/svg">
<g clip-path="url(#clip0_2977_1168)">
<path fill-rule="evenodd" clip-rule="evenodd" d="M29 4C15.1929 4 4 15.1929 4 29C4 42.8071 15.1929 54 29 54C42.8071 54 54 42.8071 54 29C54 15.1929 42.8071 4 29 4ZM0 29C0 12.9837 12.9837 0 29 0C45.0163 0 58 12.9837 58 29C58 45.0163 45.0163 58 29 58C12.9837 58 0 45.0163 0 29Z" fill="white"/>
<path d="M29 54C42.8071 54 54 42.8071 54 29C54 15.1929 42.8071 4 29 4C15.1929 4 4 15.1929 4 29C4 42.8071 15.1929 54 29 54Z" fill="url(#paint0_linear_2977_1168)"/>
<path fill-rule="evenodd" clip-rule="evenodd" d="M29 50C40.598 50 50 40.598 50 29C50 17.402 40.598 8 29 8C17.402 8 8 17.402 8 29C8 40.598 17.402 50 29 50ZM54 29C54 42.8071 42.8071 54 29 54C15.1929 54 4 42.8071 4 29C4 15.1929 15.1929 4 29 4C42.8071 4 54 15.1929 54 29Z" fill="url(#paint1_linear_2977_1168)"/>
<path d="M19 21C22.866 21 26 17.866 26 14C26 10.134 22.866 7 19 7C15.134 7 12 10.134 12 14C12 17.866 15.134 21 19 21Z" fill="white" fill-opacity="0.67"/>
<path d="M31.4084 29.8639C31.7924 30.6959 32.2084 31.5172 32.6564 32.3279C33.1257 33.1386 33.6377 33.9172 34.1924 34.6639C34.6404 33.9812 35.0671 33.2026 35.4724 32.3279C35.8777 31.4532 36.1764 30.6319 36.3684 29.8639H31.4084ZM27.3124 21.8639C27.3124 22.3119 27.1524 22.6639 26.8324 22.9199C26.5124 23.1759 26.1284 23.3039 25.6804 23.3039H23.3764C23.3764 23.9652 23.3764 24.6266 23.3764 25.2879C23.3977 25.9492 23.4084 26.6212 23.4084 27.3039C23.5791 27.2399 23.7924 27.1439 24.0484 27.0159C24.3257 26.8879 24.6031 26.7599 24.8804 26.6319C25.2217 26.4612 25.5417 26.3226 25.8404 26.2159C26.1391 26.0879 26.3311 26.0239 26.4164 26.0239C26.5871 26.0239 26.6724 26.0879 26.6724 26.2159C26.6724 26.4079 26.5337 26.6852 26.2564 27.0479C26.0004 27.3892 25.6804 27.7519 25.2964 28.1359C24.9124 28.5199 24.5391 28.8719 24.1764 29.1919C23.8351 29.4906 23.5791 29.7039 23.4084 29.8319V38.3439C23.4084 39.2399 23.3444 40.0932 23.2164 40.9039C23.1097 41.6932 22.8004 42.3332 22.2884 42.8239C21.7977 43.3359 20.9657 43.5919 19.7924 43.5919C18.9604 43.5919 18.1177 43.3786 17.2644 42.9519C16.4324 42.5466 15.7284 42.0772 15.1524 41.5439C15.0457 41.4372 14.9924 41.3412 14.9924 41.2559C14.9924 41.1492 15.0244 41.0746 15.0884 41.0319C15.1737 41.0106 15.2591 40.9999 15.3444 40.9999C15.4297 40.9999 15.5151 40.9999 15.6004 40.9999C15.7071 41.0212 15.8031 41.0426 15.8884 41.0639C15.9737 41.0852 16.0697 41.0959 16.1764 41.0959C16.2831 41.1172 16.3791 41.1492 16.4644 41.1919C16.6564 41.2132 16.8484 41.2452 17.0404 41.2879C17.2537 41.3306 17.4564 41.3519 17.6484 41.3519C18.4377 41.3519 18.9497 41.0746 19.1844 40.5199C19.4191 39.9439 19.5364 39.2932 19.5364 38.5679C19.5364 37.5012 19.5364 36.4239 19.5364 35.3359C19.5364 34.2479 19.5257 33.1706 19.5044 32.1039C18.9924 32.4452 18.4484 32.7866 17.8724 33.1279C17.3177 33.4479 16.7204 33.7359 16.0804 33.9919L14.1924 30.7919C15.1097 30.4719 16.0057 30.1519 16.8804 29.8319C17.7551 29.5119 18.6297 29.2026 19.5044 28.9039C19.5044 27.9652 19.4937 27.0372 19.4724 26.1199C19.4724 25.1812 19.4724 24.2426 19.4724 23.3039H15.2484V21.7999H19.4724C19.4724 20.6692 19.4617 19.5386 19.4404 18.4079C19.4404 17.2772 19.4404 16.1252 19.4404 14.9519H23.3444V21.7999H24.2404C24.2831 21.4586 24.4537 21.1492 24.7524 20.8719C25.0724 20.5946 25.4137 20.4559 25.7764 20.4559C26.2031 20.4559 26.5657 20.5946 26.8644 20.8719C27.1631 21.1492 27.3124 21.4799 27.3124 21.8639ZM45.9364 42.2479C45.9364 42.6746 45.7657 43.0372 45.4244 43.3359C45.1044 43.6559 44.7097 43.8159 44.2404 43.8159C43.7071 43.8159 43.0564 43.6986 42.2884 43.4639C41.5417 43.2506 40.7951 42.9839 40.0484 42.6639C39.3231 42.3439 38.7151 42.0666 38.2244 41.8319C37.5204 41.4692 36.8377 41.0639 36.1764 40.6159C35.5151 40.1466 34.8751 39.6772 34.2564 39.2079C32.9124 40.3172 31.3337 41.1812 29.5204 41.7999C27.7284 42.4399 25.9684 42.7599 24.2404 42.7599H24.1124C24.0271 42.7599 23.9631 42.7492 23.9204 42.7279C23.7497 42.6852 23.6644 42.6106 23.6644 42.5039C23.6644 42.3972 23.7071 42.3119 23.7924 42.2479C23.8991 42.2052 23.9951 42.1732 24.0804 42.1519C24.3791 42.0452 24.6777 41.9279 24.9764 41.7999C25.2751 41.6932 25.5737 41.5652 25.8724 41.4159C26.8751 40.9466 27.9311 40.3279 29.0404 39.5599C30.1711 38.7706 31.1311 37.9812 31.9204 37.1919C31.1311 36.4239 30.4057 35.6026 29.7444 34.7279C29.0831 33.8319 28.4537 32.9252 27.8564 32.0079C28.3257 31.6452 28.7737 31.2826 29.2004 30.9199C29.6484 30.5572 30.0964 30.2052 30.5444 29.8639H26.8324V28.1679H40.5924C40.8057 28.1679 40.9764 28.1999 41.1044 28.2639C41.2537 28.3279 41.3284 28.4772 41.3284 28.7119C41.3284 29.2879 41.1577 29.9706 40.8164 30.7599C40.4964 31.5492 40.0804 32.3599 39.5684 33.1919C39.0777 34.0239 38.5657 34.7919 38.0324 35.4959C37.4991 36.1999 37.0297 36.7652 36.6244 37.1919C37.4991 38.0666 38.4591 38.9199 39.5044 39.7519C40.5497 40.5839 41.6057 41.2986 42.6724 41.8959C42.8217 41.5759 43.0457 41.3092 43.3444 41.0959C43.6644 40.8826 44.0164 40.7759 44.4004 40.7759C44.7844 40.7759 45.1364 40.9252 45.4564 41.2239C45.7764 41.5439 45.9364 41.8852 45.9364 42.2479ZM45.8724 23.2399C45.8724 23.5172 45.7977 23.7839 45.6484 24.0399C45.4991 24.2746 45.3284 24.4879 45.1364 24.6799C44.4751 25.2986 43.6431 25.7786 42.6404 26.1199C41.6377 26.4399 40.6777 26.5999 39.7604 26.5999C38.6084 26.5999 37.6804 26.4826 36.9764 26.2479C36.2724 26.0132 35.7604 25.5866 35.4404 24.9679C35.1204 24.3279 34.9604 23.3999 34.9604 22.1839C34.9604 21.3732 34.9604 20.5519 34.9604 19.7199C34.9817 18.8666 35.0031 18.0239 35.0244 17.1919H32.6244C32.5817 18.6639 32.4217 20.1146 32.1444 21.5439C31.8884 22.9732 31.2591 24.2852 30.2564 25.4799C30.0004 25.7572 29.6697 26.0666 29.2644 26.4079C28.8804 26.7492 28.5284 27.0266 28.2084 27.2399C28.0591 27.3252 27.8884 27.4212 27.6964 27.5279C27.5044 27.6132 27.2911 27.6559 27.0564 27.6559C26.9924 27.6559 26.8964 27.6452 26.7684 27.6239C26.6617 27.5812 26.6084 27.5172 26.6084 27.4319C26.6084 27.3039 26.6404 27.2079 26.7044 27.1439C26.7257 27.1012 26.7471 27.0586 26.7684 27.0159C26.7897 26.9732 26.8111 26.9412 26.8324 26.9199C27.1524 26.4719 27.4084 26.0452 27.6004 25.6399C27.7924 25.2132 27.9631 24.7332 28.1124 24.1999C28.2831 23.5812 28.3897 22.9092 28.4324 22.1839C28.4964 21.4586 28.5391 20.7226 28.5604 19.9759C28.5604 19.2292 28.5497 18.4826 28.5284 17.7359C28.5071 16.9892 28.4964 16.2852 28.4964 15.6239L39.1524 15.6239C39.1311 16.7332 39.0884 17.8426 39.0244 18.9519C38.9817 20.0399 38.9604 21.1172 38.9604 22.1839C38.9604 22.9732 39.1097 23.5706 39.4084 23.9759C39.7071 24.3812 40.2404 24.5839 41.0084 24.5839C41.3497 24.5839 41.7124 24.5626 42.0964 24.5199C42.4804 24.4559 42.8217 24.3599 43.1204 24.2319C42.9711 24.1039 42.8324 23.9652 42.7044 23.8159C42.5764 23.6666 42.5124 23.4959 42.5124 23.3039C42.5124 22.7919 42.6937 22.4079 43.0564 22.1519C43.4191 21.8746 43.8457 21.7359 44.3364 21.7359C44.7844 21.7359 45.1471 21.8852 45.4244 22.1839C45.7231 22.4826 45.8724 22.8346 45.8724 23.2399Z" fill="url(#paint2_linear_2977_1168)"/>
</g>
<defs>
<linearGradient id="paint0_linear_2977_1168" x1="2.18251" y1="28.5709" x2="55.8862" y2="28.5709" gradientUnits="userSpaceOnUse">
<stop stop-color="#FF3B00"/>
<stop offset="0.5" stop-color="#FBD023"/>
<stop offset="1" stop-color="#FF3C00"/>
</linearGradient>
<linearGradient id="paint1_linear_2977_1168" x1="13.6879" y1="9.52165" x2="44.3121" y2="48.4784" gradientUnits="userSpaceOnUse">
<stop stop-color="#FE660A"/>
<stop offset="0.165505" stop-color="#FF5B03"/>
<stop offset="0.375091" stop-color="#FFC892"/>
<stop offset="0.50388" stop-color="#FFCE2E"/>
<stop offset="0.659632" stop-color="#FF5618"/>
<stop offset="0.860606" stop-color="#FF9500"/>
<stop offset="1" stop-color="#FF6201"/>
</linearGradient>
<linearGradient id="paint2_linear_2977_1168" x1="18.5" y1="15" x2="42.5" y2="44" gradientUnits="userSpaceOnUse">
<stop offset="0.3" stop-color="white"/>
<stop offset="1" stop-color="#FFFF00"/>
</linearGradient>
<clipPath id="clip0_2977_1168">
<rect width="58" height="58" fill="white"/>
</clipPath>
</defs>
</svg>
